
        <svg xmlns="http://www.w3.org/2000/svg" xmlns:xlink="http://www.w3.org/1999/xlink" version="1.1" width="2616.279069767442" height="3174.4186046511627" viewBox="0 0 2616.279069767442 3174.4186046511627">
			
			<g transform="scale(8.720930232558139) translate(10, 10)">
				<defs id="SvgjsDefs4184"/><g id="SvgjsG4185" featureKey="rootContainer" transform="matrix(1,0,0,1,0,0)" fill="#fff"><rect y="0" height="1" width="1" opacity="0"/><rect y="339" width="280" height="5"/></g><g id="SvgjsG4186" featureKey="mugSzh-0" transform="matrix(1.7566978505282078,0,0,1.7566978505282078,56.17987944807227,-17.30352930960091)" fill="#fff"><g xmlns="http://www.w3.org/2000/svg"><g><g><g><path d="M26.873,20.334c-4.741-0.014-9.381-1.263-13.263,2.11c-1.87,1.624-2.299,4.311-2.578,6.603      c-0.631,5.161,3.508,11.083-3.364,13.324C6.874,42.63,6.32,43.844,7.116,44.46c1.217,0.941,2.534,1.58,3.881,2.321      c1.541,0.85,1.672,7.571,1.83,8.996c0.518,4.645-2.014,10.145-0.706,14.59c1.439,4.895,10.028,7.739,14.291,4.704      c1.302-0.927,0.055-3.096-1.262-2.158c-3.014,2.146-10.304-0.182-10.696-4.099c-0.361-3.601,1.004-7.689,0.977-11.355      c-0.021-2.898-0.081-7.211-0.959-9.933c-0.908-2.812-3.42-3.157-5.588-4.834c-0.184,0.696-0.367,1.393-0.552,2.089      c3.796-1.237,5.835-2.769,5.909-6.976c0.086-4.918-3.096-12.596,3.484-14.983c2.703-0.981,6.338,0.004,9.147,0.012      C28.485,22.839,28.485,20.339,26.873,20.334L26.873,20.334z"/></g></g><g><g><path d="M69.127,22.834c2.42-0.007,4.821-0.306,7.241-0.291c7.298,0.046,6.105,8.637,5.521,13.517      c-0.596,4.986,1.211,7.233,5.778,8.722c-0.185-0.696-0.368-1.393-0.552-2.089c-1.566,1.212-4.622,1.843-5.313,3.983      c-0.911,2.822-0.803,6.146-1.131,9.102c-0.444,3.987,0.4,7.833,0.836,11.765c0.506,4.552-7.022,7.96-10.659,5.371      c-1.316-0.938-2.563,1.231-1.262,2.158c4.263,3.035,12.852,0.19,14.291-4.704c0.403-1.37,0.155-3.07-0.058-4.448      c-0.528-3.418-0.861-6.683-0.648-10.142c0.141-2.297,0.593-4.489,0.687-6.79c0.101-2.493,3.391-3.264,5.024-4.527      c0.797-0.616,0.242-1.83-0.552-2.089c-5.858-1.91-3.765-6.868-3.369-11.584c0.202-2.408-0.23-5.367-1.771-7.325      c-3.622-4.6-8.899-3.143-14.064-3.128C67.515,20.339,67.515,22.839,69.127,22.834L69.127,22.834z"/></g></g></g><g><g><g><path d="M35.27,51.389c-5.728-2.952-9.439,7.214-3.4,8.823c4.333,1.155,7.525-7.248,3.4-9.136      c-1.455-0.666-2.726,1.488-1.262,2.158c1.634,0.748,0.089,4.142-1.229,4.547c-1.23,0.378-1.668-1.66-1.501-2.457      c0.259-1.241,1.433-2.445,2.729-1.777C35.438,54.284,36.703,52.127,35.27,51.389L35.27,51.389z"/></g></g><g><g><path d="M46.629,50.639c-2.154,0.781-3.212,2.804-2.837,5.044c0.332,1.985,1.799,3.742,3.916,3.764      c2.555,0.026,4.729-2.692,4.443-5.131c-0.309-2.632-2.759-4.478-5.347-4.346c-1.604,0.081-1.612,2.582,0,2.5      c1.323-0.067,2.462,0.608,2.838,1.917c0.354,1.228-0.944,2.57-2.141,2.558c-0.77-0.008-1.136-1.135-1.263-1.711      c-0.195-0.884,0.177-1.866,1.054-2.185C48.796,52.504,48.147,50.087,46.629,50.639L46.629,50.639z"/></g></g><g><g><path d="M59.451,51.213c-1.226,1.781-1.3,4.066-0.054,5.859c1.094,1.571,3.086,2.631,5.005,2.063      c2.415-0.715,3.265-3.849,2.676-6.033c-0.812-3.01-4.29-4.313-6.866-2.65c-1.35,0.87-0.098,3.035,1.262,2.158      c3.29-2.123,4.363,3.976,1.991,4.185c-0.834,0.073-1.651-0.564-2.107-1.284c-0.644-1.016-0.393-2.099,0.252-3.036      C62.526,51.143,60.358,49.895,59.451,51.213L59.451,51.213z"/></g></g></g></g></g><g id="SvgjsG4187" featureKey="PPkF4s-0" transform="matrix(11.940621532669697,0,0,11.940621532669697,-11.940621532669697,51.98277605388745)" fill="#fff"><path d="M1.26 20 c-0.16 0 -0.26 -0.12 -0.26 -0.26 l0 -11.98 c0 -0.14 0.1 -0.26 0.26 -0.26 l4.88 0 c1.52 0 2.72 0.38 3.56 1.16 c1.24 1.12 1.66 3.24 1.06 4.8 c-0.22 0.56 -0.6 1.08 -1.08 1.46 c-0.28 0.22 -0.58 0.38 -0.88 0.54 c0.86 1.36 2.16 4.12 2.16 4.12 c0.02 0.04 0.06 0.1 0.06 0.16 c0 0.14 -0.12 0.26 -0.26 0.26 l-2.96 0 c-0.08 0 -0.18 -0.06 -0.22 -0.14 l-1.74 -3.82 c-0.62 0.04 -1.1 0.02 -1.74 0.02 l0 3.68 c0 0.14 -0.12 0.26 -0.26 0.26 l-2.58 0 z M4.1 13.280000000000001 c0 0 2.52 0.28 3.4 -0.3 c0.34 -0.22 0.54 -0.76 0.54 -1.16 c-0.02 -0.44 -0.24 -0.9 -0.6 -1.18 c-0.38 -0.32 -1.32 -0.42 -1.8 -0.42 l-1.54 0.04 l0 3.02 z M19.42 20 c-1.18 0 -2.28 -0.28 -3.24 -0.84 c-0.98 -0.58 -1.74 -1.36 -2.3 -2.32 c-0.56 -0.98 -0.84 -2.1 -0.84 -3.3 s0.28 -2.3 0.86 -3.26 c0.56 -0.98 1.36 -1.76 2.34 -2.32 c1 -0.56 2.12 -0.84 3.34 -0.84 c0.88 0 1.74 0.16 2.6 0.5 c0.84 0.32 1.58 0.78 2.18 1.36 c0.1 0.08 0.12 0.22 0.04 0.34 l-1.46 1.92 c-0.06 0.06 -0.12 0.1 -0.2 0.12 c-0.06 0 -0.14 -0.04 -0.2 -0.08 c-0.4 -0.4 -0.86 -0.72 -1.4 -0.94 c-0.52 -0.22 -1.04 -0.34 -1.56 -0.34 c-0.62 0 -1.2 0.16 -1.7 0.46 c-0.52 0.32 -0.92 0.74 -1.22 1.28 s-0.44 1.14 -0.44 1.8 s0.14 1.28 0.44 1.82 s0.72 0.98 1.22 1.3 c0.52 0.3 1.1 0.46 1.7 0.46 c0.32 0 0.66 -0.06 1.04 -0.16 c0.32 -0.1 0.66 -0.24 0.96 -0.4 l0 -0.92 l-1.38 0 c-0.08 0 -0.14 -0.02 -0.18 -0.08 c-0.06 -0.04 -0.08 -0.1 -0.08 -0.18 l0.02 -2.24 c0 -0.14 0.12 -0.26 0.26 -0.26 l3.88 0 c0.14 0 0.26 0.12 0.26 0.26 l0 5.02 c0 0.08 -0.04 0.16 -0.12 0.22 c-0.62 0.48 -1.38 0.88 -2.26 1.16 c-0.88 0.3 -1.74 0.46 -2.56 0.46 z"/></g><g id="SvgjsG4188" featureKey="uwAHB0-0" transform="matrix(2.06677235418337,0,0,2.06677235418337,77.9349035121288,285.66454798876333)" fill="#fff"><path d="M5.14 20 c-0.12 0 -0.22 -0.08 -0.24 -0.18 l-3.88 -11.98 c-0.04 -0.08 -0.02 -0.16 0.04 -0.24 c0.04 -0.06 0.12 -0.1 0.2 -0.1 l2.8 0 c0.1 0 0.22 0.08 0.24 0.18 l2.08 7.22 l1.9 -6.86 c0.02 -0.12 0.12 -0.2 0.24 -0.2 l2.54 0 c0.12 0 0.22 0.08 0.26 0.2 l1.92 6.86 l2.04 -7.22 c0.04 -0.1 0.14 -0.18 0.26 -0.18 l2.68 0 c0.08 0 0.16 0.04 0.2 0.1 c0.06 0.08 0.06 0.16 0.04 0.24 l-3.9 11.98 c-0.04 0.1 -0.12 0.18 -0.24 0.18 l-2.34 0 c-0.12 0 -0.22 -0.08 -0.24 -0.18 l-2 -7.1 l-2.04 7.1 c-0.02 0.1 -0.12 0.18 -0.24 0.18 l-2.32 0 z M29.124000000000002 20 l0 -11.98 c0 -0.5 0.1 -0.6 0.26 -0.6 l8.76 0 c0.14 0 0.26 0.1 0.26 0.24 l0 2.26 c0 0.14 -0.12 0.26 -0.26 0.26 l-5.92 0 l0 2.08 l3.74 0 c0.14 0 0.26 0.12 0.26 0.26 l0 2.24 c0 0.14 -0.12 0.26 -0.26 0.26 l-3.74 0 l0 2.14 l5.9 0 c0.14 0 0.26 0.12 0.26 0.26 l0 2.24 c0 0.14 -0.12 0.26 -0.26 0.26 l-8.74 0 c-0.16 0 -0.26 -0.12 -0.26 0.08 z M49.508 20 c-0.14 0 -0.26 -0.12 -0.26 -0.26 l0 -11.98 c0 -0.14 0.12 -0.26 0.26 -0.26 l4.78 0 c1.32 0 2.2 0.28 2.98 0.86 c1.08 0.78 1.52 2.26 1.02 3.52 c-0.26 0.64 -0.7 0.98 -1.3 1.3 c0.86 0.12 1.4 0.68 1.72 1.08 c0.46 0.6 0.7 1.32 0.7 2.16 c0 1.1 -0.44 2 -1.28 2.64 c-0.82 0.62 -1.94 0.94 -3.32 0.94 l-5.3 0 z M52.188 12.08 l1.96 0 c0.4 0 0.72 -0.08 0.94 -0.26 c0.2 -0.18 0.3 -0.42 0.3 -0.74 c0 -0.3 -0.1 -0.54 -0.3 -0.7 c-0.2 -0.18 -0.5 -0.26 -0.86 -0.26 l-2.04 0 l0 1.96 z M52.188 17.54 l2.34 0 c0.6 0 1.06 -0.12 1.4 -0.36 c0.3 -0.22 0.46 -0.52 0.46 -0.94 c0 -0.38 -0.16 -0.66 -0.46 -0.88 c-0.32 -0.22 -0.76 -0.34 -1.32 -0.34 l-2.42 0 l0 2.52 z"/></g>
			</g>
		</svg>
	